<svg xmlns="http://www.w3.org/2000/svg" viewBox="0 0 316.75 476.76"><g id="Layer_2" data-name="Layer 2"><g id="Layer_1-2" data-name="Layer 1"><path d="M309.72,149.37v12.84a2.16,2.16,0,0,1-.56,1.76c-.39.36-.31.88-.36,1.36-.17,1.74.2,3.48-.76,5.22-.56,1-.21,2.51-.24,3.79a2.16,2.16,0,0,1-.58,1.62c-.64.65-.49,1.57-.54,2.4s.08,1.86-.71,2.56a.28.28,0,0,0-.11.21c.1,1.89-1,3.57-1.07,5.38-.06,1.62-1,2.78-1.45,4.18-.08.26-.44.49-.41.7.27,1.9-.74,3.52-1.19,5.24a36.14,36.14,0,0,1-1.42,4c-.25.62-.39,1.29-.67,1.85-.75,1.48-.66,3.23-1.6,4.62a2.12,2.12,0,0,0-.28,1,2.26,2.26,0,0,1-.69,1.83.8.8,0,0,0-.24.54c-.15,2.51-1.63,4.43-2.82,6.49-.06.1-.16.22-.15.32.17,1.62-1.08,2.84-1.22,4.41-.08,1-.83,1.91-1.23,2.89-.86,2.12-2.4,3.94-2.77,6.29a8.6,8.6,0,0,1-1.13,2.32A29.07,29.07,0,0,1,285.1,238a1.27,1.27,0,0,0-.23.55c-.31,2.45-1.7,4.4-2.88,6.47a33.34,33.34,0,0,0-2.14,4.57c-.39,1-1,1.86-1.38,2.87a55.13,55.13,0,0,1-2.9,5.61c-.82,1.65-1.56,3.34-2.46,5a9.37,9.37,0,0,0-1.36,3c-.14.82-.88,1.43-1.27,2.21-1,2-2,4-2.88,6-.13.31-.47.53-.72.78-1,1.07-1.23,2.6-2.1,3.77s-1.24,2.78-2.42,3.88c-.79.74-1,1.93-1.48,2.89-.93,1.8-1.91,3.58-2.82,5.39-1.05,2.09-2.74,3.83-3.35,6.16a1.49,1.49,0,0,1-.39.58,15.22,15.22,0,0,0-2.74,4.36,15.45,15.45,0,0,1-1.64,3c-1.24,1.55-2.07,3.42-3.26,5-1.39,1.85-1.65,4.37-3.57,5.89-.19,1.77-1.9,2.63-2.53,4.21a9.6,9.6,0,0,1-1.9,3.22,8.35,8.35,0,0,0-1.91,3.58c-.14.48-.54.68-.77,1-1.55,2.3-3.38,4.44-4.32,7.12a2.36,2.36,0,0,1-.48.67c-.62.71-1.41,1.31-1.45,2.38,0,.34-.34.5-.58.72-.65.62-1.43,1.16-1.54,2.19a1,1,0,0,1-.35.6c-1.36,1.19-1.83,2.89-2.56,4.44a4.54,4.54,0,0,1-1.47,1.69c-1.3.94-1.62,2.47-2.4,3.73-.3.49-.54,1-.89,1.49-1.15,1.62-2.22,3.32-3.24,5-.27.47-.76.71-1,1.18-.87,1.78-2.36,3.19-3.07,5.08a.55.55,0,0,1-.11.2c-1.51,1.17-2.31,2.95-3.24,4.48s-2.41,2.47-2.6,4.28a.67.67,0,0,1-.22.42c-1.43,1.07-2.19,2.71-3.12,4.12s-2.15,2.63-2.65,4.29a3,3,0,0,1-1.27,1.52,7.56,7.56,0,0,0-2.47,3.67,12.26,12.26,0,0,1-2.4,3.2,2.59,2.59,0,0,0-.77,1.43,1,1,0,0,1-.24.66c-1.54,1-2.28,2.75-3.18,4.2s-2.1,2.63-2.61,4.26a1.31,1.31,0,0,1-.47.67,4.57,4.57,0,0,0-1.74,2.47c-.24,1-1.27,1.49-1.89,2.26-1,1.28-1.68,2.82-2.74,4.1a9.87,9.87,0,0,1-1.08,1.52c-1,.86-1.1,2.39-2.13,3.23-1.6,1.29-2.26,3.27-3.56,4.8a13.47,13.47,0,0,0-2.5,4c-.39,1.08-1.65,1.64-2.17,2.63-.81,1.54-2.17,2.69-2.81,4.32a2.37,2.37,0,0,1-.42.7c-.7.75-1.58,1.36-1.59,2.55,0,.39-.43.57-.71.77-1.83,1.31-2.43,3.56-3.93,5.12a1.07,1.07,0,0,0-.16.32c-.2.36,0,1.07-.59,1a1.46,1.46,0,0,1-1.16-1.07c-.18-1.58-1.64-2.22-2.27-3.4-.89-1.7-2.71-2.77-3.11-4.76a.53.53,0,0,0-.11-.21c-2.3-1.72-3-4.76-5.34-6.44-.3-1.7-2-2.53-2.46-4.22-.28-1.13-1.63-1.62-2.19-2.61-.85-1.5-2.23-2.65-2.78-4.33a3.45,3.45,0,0,0-.87-1.12,34.6,34.6,0,0,1-2.37-3.32c-1.35-1.94-2.69-3.88-4-5.87-1.16-1.78-2.17-3.79-3.92-5.12-1-.74-.93-1.92-1.65-2.81a21.27,21.27,0,0,1-3.3-4.95s0-.09-.05-.11c-1.52-1.11-2-3-3.15-4.38-.93-1.1-1.51-2.52-2.56-3.62a20.61,20.61,0,0,1-3.16-4.86,2.1,2.1,0,0,0-.42-.57,12.94,12.94,0,0,1-2.59-4.3,3.85,3.85,0,0,0-1.21-1.45,8.11,8.11,0,0,1-2.45-3.69,9,9,0,0,0-2.44-3.31,12.35,12.35,0,0,1-1.73-3,16.42,16.42,0,0,0-.85-1.51,33.53,33.53,0,0,1-3.35-5.08,2.13,2.13,0,0,0-.23-.42c-.79-.83-1.27-1.95-2-2.74-1.29-1.48-2.08-3.25-3.19-4.8-.91-1.27-2.21-2.38-2.68-4.1a6.5,6.5,0,0,0-1.59-2.84,12.9,12.9,0,0,1-2.31-3.94c-.06-.11-.06-.27-.14-.33-1.53-1.22-2.19-3.08-3.19-4.65-.87-1.38-1.92-2.66-2.74-4.1-1.14-2-2.08-4.05-3.39-6s-2.89-3.8-3.71-6.13c-.42-1.2-1.53-2.14-2.07-3.4-1-2.37-3-4.2-3.93-6.66a8.08,8.08,0,0,0-2.27-3.55c-.68-.55-.74-1.56-1.07-2.32-1.1-2.52-3.15-4.46-4.14-7s-2.8-4.63-4-7a40.11,40.11,0,0,1-2.27-4.88,1.73,1.73,0,0,0-.41-.71c-1.34-1.17-1.77-2.85-2.48-4.36-.34-.71-.89-1.25-1.25-2-.84-1.67-1.48-3.44-2.44-5.06a8.61,8.61,0,0,1-1.35-2.87c-.14-.81-.84-1.25-1.37-1.76-.34-.32-.69-.61-.64-1.08a3.41,3.41,0,0,0-1-2.58c-1.25-1.45-1.58-3.4-2.73-4.9a.66.66,0,0,1-.1-.46c.18-1.67-1.11-2.71-1.71-4a16.27,16.27,0,0,1-1.44-3.08,9,9,0,0,0-1.19-2.42c-1.28-2.25-2.19-4.68-3.55-6.9-.61-1-1.49-2.13-1.32-3.59.11-.89-.67-1.62-1.08-2.32-1-1.63-1.58-3.41-2.43-5.08-.55-1.08-.85-2.33-1.4-3.47a27.65,27.65,0,0,0-1.62-3.33c-.07-.1-.2-.21-.19-.3.16-1.62-1.15-2.81-1.26-4.4A7,7,0,0,0,22.61,213a3.61,3.61,0,0,1-.61-1.64,2.27,2.27,0,0,0-.66-1.63.92.92,0,0,1-.32-.49c-.12-1.87-1.4-3.34-1.79-5-.35-1.49-1.4-2.77-1.28-4.37a1.21,1.21,0,0,0-.35-1,2.29,2.29,0,0,1-.59-1.76,3.24,3.24,0,0,0-.73-2.57c-.24-.24-.24-.74-.3-1.13a2.61,2.61,0,0,0-.71-1.73,1.59,1.59,0,0,1-.38-1.23,2.24,2.24,0,0,0-.61-1.75,1.25,1.25,0,0,1-.29-.76c-.11-1.29.18-2.67-.93-3.71.37-2.09-1.18-3.83-1.1-5.87a1.92,1.92,0,0,0-.52-1.54,1.91,1.91,0,0,1-.39-1.35,9.55,9.55,0,0,0-.79-4.25c-.61-1.12-.34-2.73-.42-4.13-.05-.91.11-1.84-.7-2.56-.3-.27-.2-.75-.21-1.15l-.06-4.08c0-1,.13-2.08-.71-2.93-.28-.29-.18-.76-.18-1.16V144.47a1.71,1.71,0,0,1,.32-1.36,2.34,2.34,0,0,0,.57-1.88c0-2.56.05-5.12.06-7.68a2.2,2.2,0,0,1,.54-1.77,1.67,1.67,0,0,0,.38-1.23c.08-1.32.14-2.64.22-4,0-.4-.05-.92.16-1.17,1-1.16.76-2.55.81-3.88a2.34,2.34,0,0,1,.58-1.77.58.58,0,0,0,.22-.41c-.3-2.16,1.3-4,1.15-6.09a1.58,1.58,0,0,1,.53-1.52c.09-.07.22-.19.22-.27-.12-1.53,1.17-2.72,1.09-4.18-.11-1.8.93-3,1.72-4.42.1-.17.34-.35.31-.49-.25-1.64,1-2.87,1.17-4.43.09-1.07.87-2,1.29-3A8.08,8.08,0,0,0,20,93.1a13.18,13.18,0,0,1,1.44-3.18,5,5,0,0,0,.48-1c.44-2.32,1.87-4.2,2.79-6.31a13.22,13.22,0,0,0,1.33-3,1.52,1.52,0,0,1,.38-.72,13.2,13.2,0,0,0,2.74-4.5,1.39,1.39,0,0,1,.32-.49c1.39-1.14,1.77-2.86,2.5-4.36.21-.42.58-.65.8-1a52.69,52.69,0,0,0,3.42-5.22c.44-.92,1.46-1.55,2.08-2.41,1.61-2.21,3.54-4.15,4.9-6.56a12.46,12.46,0,0,1,2.68-3c2.1-1.84,3.87-4,5.86-5.93,3.46-3.38,6.76-7,10.44-10.08a64,64,0,0,1,5.21-4.25C69.65,29.59,72,28,74.2,26.3a11.64,11.64,0,0,1,4-2.42,1.17,1.17,0,0,0,.59-.38c1.08-1.56,2.79-2.09,4.44-2.7a2.23,2.23,0,0,0,.78-.54c.82-.75,1.6-1.56,2.88-1.41a1.2,1.2,0,0,0,.86-.37,24.61,24.61,0,0,1,4.6-2.83,74.07,74.07,0,0,0,6.89-3.48,1.12,1.12,0,0,1,.69-.16c1.54.16,2.55-1,3.78-1.56a3.89,3.89,0,0,1,1.61-.6,2.33,2.33,0,0,0,1.76-.6,1.06,1.06,0,0,1,.64-.3c1.73-.07,3.11-1,4.56-1.78.07,0,.14-.1.21-.09,2,.24,3.68-1,5.63-1.18A12,12,0,0,0,123,4.19a3.73,3.73,0,0,1,1.48-.35c1.35-.15,2.82.36,4-.8.16-.16.53-.12.81-.13a5,5,0,0,0,3.16-.77c.7-.54,1.79-.17,2.7-.23,1.14-.07,2.32.17,3.29-.76.24-.22.76-.17,1.16-.18,1.68,0,3.35,0,5-.07a3.36,3.36,0,0,0,2.59-.67c.29-.3.76-.22,1.15-.22h21A2.2,2.2,0,0,1,171,.53a2,2,0,0,0,1.48.36L178.2,1a5.07,5.07,0,0,1,3,.69c.93.6,2.19.2,3.3.27.91.06,1.87-.09,2.55.74a.45.45,0,0,0,.32.14c2.36-.33,4.37,1.4,6.73,1.08a1.92,1.92,0,0,1,1.95.65.9.9,0,0,0,.53.27c1.06.14,2.08.84,3,.92,1.81.17,3.39,1,5.15,1.22a1.62,1.62,0,0,1,1.18.49,1.42,1.42,0,0,0,1.19.46,2.49,2.49,0,0,1,2,.68,1,1,0,0,0,.66.25c1.74,0,3.05,1.06,4.53,1.75,1.09.51,2.27.86,3.41,1.29a20.56,20.56,0,0,1,2.2,1.11c2,1.07,4.34,1.35,6.35,2.63a18.66,18.66,0,0,0,5,2.47,1,1,0,0,1,.5.31c1.19,1.37,2.86,1.88,4.45,2.53.45.19.65.58,1,.82a14.58,14.58,0,0,0,4.16,2.39c.76.23,1.25,1.07,1.85,1.63,1.31,1.21,3,1.81,4.41,3,.51.43,1.25.67,1.7,1.23,1.39,1.73,3.68,2.26,5.13,3.91.6.69,1.29,1.31,1.83,2,.71,1,1.92,1,2.78,1.78a30.73,30.73,0,0,1,2.73,2.61c2.08,2.25,4.46,4.19,6.48,6.48a55.48,55.48,0,0,0,4.2,4.2c.54.5.37,1.27.87,1.8,1.37,1.44,2.66,2.95,4.16,4.26.63.55.58,1.5,1.23,2.12,1.88,1.8,2.77,4.42,4.88,6.05.23,1.67,2,2.42,2.37,4a.89.89,0,0,0,.31.5c1.38,1.12,1.69,2.89,2.63,4.28.82,1.21,1.23,2.65,2.22,3.75a14.58,14.58,0,0,1,1.67,3.08,41.16,41.16,0,0,0,2.71,5.08,11.43,11.43,0,0,1,.94,2.13c.53,1.1,1.45,2.13,1.38,3.45-.05,1,.69,1.6,1.07,2.35.54,1.08.7,2.35,1.53,3.29a1.89,1.89,0,0,1,.33,1.25c0,.61.08,1.21.7,1.56.12.07.29.25.28.37-.15,1.5,1,2.64,1.12,4.06a2.15,2.15,0,0,0,.58,1.52,1.32,1.32,0,0,1,.36,1,2.73,2.73,0,0,0,.75,2.31.3.3,0,0,1,.1.21c-.21,2,1,3.63,1.11,5.51a3.1,3.1,0,0,0,.69,2.21c.47.5.27,1.22.31,1.85a4.84,4.84,0,0,0,.87,3.26c.61.73.22,1.86.29,2.81.05.76,0,1.51.62,2.1.34.32.28.82.28,1.26,0,1.4,0,2.8.06,4.2a3.18,3.18,0,0,0,.69,2.57c.36.34.22.91.23,1.38Zm-70.82-7c0-2.12.06-4.24,0-6.36s-1.08-4.08-1-6.23-1.38-4-1.15-6.25a.37.37,0,0,0-.08-.22c-1.3-1.64-.63-3.81-1.62-5.63-.83-1.54-1.1-3.43-1.84-5.07s-1.45-3-2.16-4.49c-.79-1.66-1.6-3.33-2.38-5a33.75,33.75,0,0,0-4.19-6.88c-1.88-2.35-3.4-5-5.63-7-3.88-3.63-7.26-7.75-11.68-10.84-2.43-1.7-4.73-3.59-7.31-5.07-2.33-1.32-4.77-2.44-7.17-3.63a18.94,18.94,0,0,1-3.18-1.53,6.28,6.28,0,0,0-2.44-1.21c-2.79-.55-5.26-2.24-8.19-2.25a.59.59,0,0,1-.35-.09c-1.65-1.41-3.86-.76-5.76-1.54s-4.59.13-6.7-1.12q-8.1-.36-16.19,0a.81.81,0,0,0-.47.08c-1.63,1.23-3.54.65-5.33.83-.59.06-1.26-.1-1.74.3a3.61,3.61,0,0,1-2.37.65c-2,0-3.72,1-5.59,1.41a10.43,10.43,0,0,0-3.27,1A13.38,13.38,0,0,1,128,67.55,68.39,68.39,0,0,0,120.23,71a48.08,48.08,0,0,0-8,4.89c-.67.48-1.16,1.3-1.89,1.61-2.38,1-4,3-6.06,4.49A41.67,41.67,0,0,0,100,86.09c-2.55,2.39-4.36,5.38-6.77,7.86a1.22,1.22,0,0,0-.25.41c-.72,1.73-2,3.06-3,4.62s-2.05,3-2.9,4.5a73,73,0,0,0-4,8.8,11.17,11.17,0,0,0-1.18,3,14.23,14.23,0,0,1-1.31,4.25c-.77,1.73-.58,3.61-1.43,5.33-.71,1.44-.63,3.31-1,5-.74,3.08-.46,6.31-.92,9.47-.51,3.47.18,7,.42,10.56s1.15,6.65,1.4,10a.88.88,0,0,0,.14.45c1.26,1.65.8,3.78,1.56,5.64.54,1.33.92,2.93,1.41,4.33a34.64,34.64,0,0,0,2.52,6.14,9,9,0,0,1,1.26,2.28c.29,1.16,1.1,2.09,1.48,3.2.56,1.65,2,2.76,2.57,4.39a6.88,6.88,0,0,0,1.48,2.43c2.29,2.33,3.87,5.21,6.28,7.47,3.58,3.36,6.62,7.25,10.77,10,2.42,1.62,4.59,3.56,7.1,5.13s5.24,2.9,7.84,4.32A26.1,26.1,0,0,0,132.2,219a1.45,1.45,0,0,1,.54.24,15.33,15.33,0,0,0,4.42,1.51c2.32.47,4.52,1.64,7,1.33a.6.6,0,0,1,.34.09c1.42.84,3,.75,4.55.78a16.54,16.54,0,0,1,4.18.2,20,20,0,0,0,6.61.59c1.24,0,2.32-.75,3.49-.71a56.6,56.6,0,0,0,11.39-1.1c2.93-.49,5.53-2.18,8.56-2.25,1.22-1.16,3-.66,4.41-1.63a23.47,23.47,0,0,1,2.4-1.23c1.3-.7,2.76-.88,4-1.66a26.07,26.07,0,0,1,3.43-2.1,41.36,41.36,0,0,0,9.06-5.68,56.57,56.57,0,0,0,6.68-5.54c1.53-1.56,3.1-3.09,4.63-4.66a10.43,10.43,0,0,0,1.85-2c1.12-2,2.73-3.56,4-5.44,1-1.47,2.4-2.73,3.05-4.36s2-2.84,2.63-4.59a34.19,34.19,0,0,1,2.57-5.18,36.53,36.53,0,0,0,1.3-3.43c.73-1.71,1.68-3.32,1.7-5.26a1.36,1.36,0,0,1,.24-.79c1-1.31.88-3,1.48-4.45s.41-3,.9-4.59c.67-2.1.65-4.44,1.09-6.68A35.72,35.72,0,0,0,238.9,142.34Z"/><path d="M158.82,476.72H124c-.87,0-1.74.12-2.4-.75-.31-.41-1-.31-1.48-.32l-6.48,0a2.37,2.37,0,0,1-1.78-.54,1.86,1.86,0,0,0-1.35-.38l-4.08-.07c-1,0-2.07.11-2.94-.69a2,2,0,0,0-1.15-.21c-1.36,0-2.72-.05-4.08-.06a3.33,3.33,0,0,1-2.69-.72c-.28-.28-.76-.18-1.15-.22-1.75-.17-3.5.23-5.22-.79-.88-.52-2.27-.19-3.43-.22a2.48,2.48,0,0,1-2.09-.65.65.65,0,0,0-.43-.19c-2.64.13-5-1.48-7.66-1.25a2.07,2.07,0,0,1-1.87-.61.58.58,0,0,0-.41-.22c-2,.26-3.78-1.08-5.76-1.11a2.29,2.29,0,0,1-1.77-.56.8.8,0,0,0-.52-.28,18.85,18.85,0,0,1-6.08-1.12,2.67,2.67,0,0,1-1.29-.53,1.11,1.11,0,0,0-.61-.34c-1.14,0-2.13-.75-3.09-.89-1.82-.27-3.44-1.06-5.21-1.4a11.22,11.22,0,0,1-3.12-1.32,3.05,3.05,0,0,0-1.43-.51,2.28,2.28,0,0,1-1.75-.64.86.86,0,0,0-.52-.26c-1.78-.14-3.2-1.13-4.75-1.85-1-.49-2.2-.76-3.28-1.26-1.78-.81-3.48-1.81-5.29-2.52-2.33-.91-4-2.87-6.36-3.74a8.19,8.19,0,0,1-3.9-2.54,3.49,3.49,0,0,0-2.1-1.26c-.89-.19-1.39-1.1-2-1.81a20.55,20.55,0,0,0-5-4.09,3.94,3.94,0,0,1-1.67-2.22c-.35-1.15-1.65-1.63-2.14-2.67a52.74,52.74,0,0,0-3-4.55c-.78-1.3-.44-2.92-1.59-4C.88,427.07,1,426.46,1,426c0-.91.07-1.85-.72-2.57-.3-.28-.23-.75-.23-1.15,0-1.4,0-2.8,0-4.2a3.11,3.11,0,0,1,.7-2.57,1.32,1.32,0,0,0,.22-.9c-.05-2.71,1.7-4.69,2.68-7,.66-1.53,2.14-2.47,2.46-4.12.08-.43.49-.61.75-.91a46.55,46.55,0,0,1,7.37-7.22c1.69-1.26,3.16-2.91,5.26-3.73A10.86,10.86,0,0,0,24,388.38c.61-.76,1.73-.82,2.56-1.36a15.31,15.31,0,0,1,1.86-.91,29.2,29.2,0,0,0,3.87-1.95A1.13,1.13,0,0,1,33,384c1.5.16,2.49-1,3.68-1.53a5.29,5.29,0,0,1,1.84-.67c1.21-.09,2.15-.91,3.25-1.31a4.94,4.94,0,0,1,1.64-.58,1.86,1.86,0,0,0,1.52-.56,1.13,1.13,0,0,1,.86-.38,8.65,8.65,0,0,0,4.44-1.74,2.09,2.09,0,0,1,1-.23,4.08,4.08,0,0,0,3-.92c.18-.19.62-.11.9-.24,1.94-1,4.17-.78,6.17-1.67A20.27,20.27,0,0,1,65,373c1.15-.24,2.27-.44,3.41-.76,1.63-.44,3.33-.78,5-1.19,1.35-.32,2.81,0,4.07-1,.58-.48,1.55-.15,2.35-.19a2.81,2.81,0,0,0,2.22-.66c.28-.32.73-.24,1.13-.28,1.78-.18,3.59.23,5.33-.83.84-.5,2.19-.15,3.31-.18a3.27,3.27,0,0,0,2.23-.65c.77-.62,2-.07,2.56,1.2.31.72.84,1.25,1.19,1.9a46.48,46.48,0,0,0,3.24,5,36.42,36.42,0,0,0,3.1,4.44c.92.95,1.21,2.36,2.18,3.33.34.33-.16.47-.48.56a20.82,20.82,0,0,1-7.56,1,1.26,1.26,0,0,0-.81.13c-1.42,1.21-3.12.72-4.71.82-.84.05-1.67,0-2.28.79-.29.37-.79.31-1.23.32-1.08,0-2.37-.32-3.2.15-1.77,1-3.79.32-5.39,1s-3.36.25-4.68.93c-1.79.92-3.89.32-5.5,1.56a.33.33,0,0,1-.22.09c-1.76-.15-3.27.72-4.9,1.14-1,.25-2.07.08-2.9.91-.21.2-.68.17-1,.19a2.27,2.27,0,0,0-1.85.65.35.35,0,0,1-.2.13c-1.6-.15-2.8,1.21-4.37,1.17a1.68,1.68,0,0,0-1.31.51c-.12.14-.33.33-.48.32-1.63-.16-2.83,1.1-4.41,1.25a7.45,7.45,0,0,0-2.93,1.45,2.2,2.2,0,0,1-1.29.51c-1.38-.06-2.38.95-3.61,1.35-.59.2-1.19.47-1.83.66A10.79,10.79,0,0,0,35,402.87a31.77,31.77,0,0,1-3.27,2c-1.29.88-2.8,1.29-4.06,2.35-1,.86-2.31,1.46-3.28,2.46a33.72,33.72,0,0,0-4.08,4.3,9.18,9.18,0,0,0-1.73,3.79,17.67,17.67,0,0,0,.32,5.83,9.09,9.09,0,0,0,3.24,5.21,14.06,14.06,0,0,0,2.57,2.28c2.14,1,3.38,3.22,5.73,4,1.64.55,3,1.83,4.63,2.53s3.28,1.52,4.87,2.37c2.06,1.1,4.38,1.43,6.45,2.61a10.73,10.73,0,0,0,4.43,1.5,9.14,9.14,0,0,1,2.88,1.27c.22.1.39.37.59.38a20.72,20.72,0,0,1,4.8,1.07c1.67.45,3.26,1.47,5.12,1.15,1,1.29,2.92.66,4.07,1.76.24.23.75.21,1.15.24,1.32.1,2.71-.19,3.88.81.25.22.77.16,1.16.17a4.09,4.09,0,0,1,2.7.72c.69.55,1.71.23,2.58.27s1.69-.06,2.32.7a.53.53,0,0,0,.42.18c2.42-.3,4.5,1.39,7,1.09a5.35,5.35,0,0,1,4,.75c.9.63,2.25.35,3.41.35a2.84,2.84,0,0,1,2.23.65,1.84,1.84,0,0,0,1.37.3l4.2.06a3.28,3.28,0,0,1,2.48.65c.35.34.9.26,1.38.26l5,.05c1,0,1.91-.09,2.69.7.34.34.92.22,1.39.22,2.88,0,5.76.06,8.64.07a2.22,2.22,0,0,1,1.77.55c.4.41,1,.34,1.48.35q29.34.18,58.67,0a2.23,2.23,0,0,0,1.78-.54c.4-.42,1-.34,1.47-.35l8.76-.07a2.24,2.24,0,0,0,1.77-.55,1.74,1.74,0,0,1,1.36-.36l5.15-.05c1,0,2,.1,2.82-.7.29-.28.76-.2,1.16-.21l4-.05c1,0,2,.1,2.81-.73.28-.29.75-.22,1.15-.23,1.08,0,2.16,0,3.24,0,.51,0,1.18.07,1.52-.21,1.56-1.33,3.41-.79,5.15-.94a2.31,2.31,0,0,0,1.65-.54c.37-.39.87-.33,1.35-.36,1.4-.1,2.83.19,4.13-.81.49-.38,1.47-.16,2.22-.19.92,0,1.87.09,2.56-.73a.35.35,0,0,1,.21-.1,17.3,17.3,0,0,0,4.81-1,18,18,0,0,1,3.13-.77c2.09-.17,3.81-1.57,5.91-1.45a2.11,2.11,0,0,0,1.87-.62.42.42,0,0,1,.3-.18c1.62.17,2.88-.93,4.38-1.27a13.78,13.78,0,0,0,4.19-1.43,1.84,1.84,0,0,1,.76-.3,8,8,0,0,0,4.47-1.91.93.93,0,0,1,.54-.21,8.6,8.6,0,0,0,4.53-1.78,1,1,0,0,1,.56-.17c1.67.11,2.81-1.13,4.23-1.64,1.87-.66,3.32-2.11,5.26-2.6a.4.4,0,0,0,.22-.09c1.6-1.6,3.79-2.38,5.41-4,1-1,2.72-1.46,3.3-2.78.73-1.64,2.1-2.74,2.92-4.32,1.31-2.5.59-5,.76-7.48a1.54,1.54,0,0,0-.29-1,34.16,34.16,0,0,0-5.15-6.16,22.41,22.41,0,0,0-5-3.25,2.91,2.91,0,0,1-.87-.8c-1-1-2.41-1.28-3.57-2a35.54,35.54,0,0,0-5.53-2.82c-1.18-.47-2.18-1.28-3.59-1.43a5.81,5.81,0,0,1-3.1-1.44,7.1,7.1,0,0,0-2.41-1.21c-1.14-.44-2.37-.72-3.56-1.15-1.81-.66-3.76-.94-5.48-1.88a1.08,1.08,0,0,0-.58-.13c-2,.13-3.69-.84-5.37-1.76a2.32,2.32,0,0,0-.7-.17,42.82,42.82,0,0,1-4.35-.94c-1.88-.58-3.8-1.67-5.95-1.26a1.79,1.79,0,0,1-1.75-.57.62.62,0,0,0-.42-.22c-2.26.2-4.19-1.46-6.48-1.15a2.39,2.39,0,0,1-2.11-.61c-.36-.36-.9-.23-1.37-.29-1.69-.19-3.45.38-5-1-.66-.56-1.87-.17-2.82-.2s-2.08.1-2.94-.72c-.32-.3-.83-.23-1.27-.24l-4-.06a3.52,3.52,0,0,1-2.7-.69c-.38-.36-1-.2-1.51-.24-.28,0-.6,0-.76-.24s.21-.45.34-.66c1.13-1.85,2.71-3.4,3.82-5.17a26.41,26.41,0,0,0,2.62-4.14c.4-1,.7-2.26,1.79-3s1.05-2.27,2.11-3.08c.55-.43,1.12-.63,1.62-.17a3.26,3.26,0,0,0,2.22.66c1.55.11,3.09-.17,4.62.77.86.53,2.26.19,3.42.22a3.48,3.48,0,0,1,2.23.63c.82.63,1.94.26,2.92.33a3,3,0,0,1,2.1.65c.64.6,1.58.45,2.41.48a3.23,3.23,0,0,1,2.46.68c.36.35.91.25,1.39.29,1.32.09,2.72-.22,3.87.82.19.18.61.15.93.15a2.42,2.42,0,0,1,1.86.64,1.26,1.26,0,0,0,.77.27c1.22.09,2.41.61,3.51.76,1.85.26,3.5,1.18,5.35,1.27a1.68,1.68,0,0,1,1.2.45c.19.19.45.44.68.44,1.63,0,2.94,1.05,4.48,1.42,1.3.31,2.91.41,4,1.48a.88.88,0,0,0,.55.2c1.71.08,3.09,1,4.54,1.75a1.34,1.34,0,0,0,.57.17c1.68,0,2.88,1.13,4.27,1.83.8.41,1.62.8,2.43,1.2,2.28,1.13,4.67,2,6.9,3.25,1.25.68,2.42,1.69,3.64,2.33,1.49.79,2.48,2.37,4.29,2.63a2.3,2.3,0,0,1,1.28,1c1.23,1.73,3.35,2.32,4.73,3.87s2.94,2.5,3.63,4.43a3.47,3.47,0,0,0,1.13,1.38,9.65,9.65,0,0,1,2.86,4.49,10,10,0,0,0,1.17,2.31,4,4,0,0,1,.61,2.48c0,4.76-.1,9.52.06,14.27a8.84,8.84,0,0,1-1.3,4.22c-2.05,4.21-5.19,7.6-8.58,10.76-1.76,1.65-3.66,3.12-5.53,4.62-1.54,1.24-3.35,2-4.78,3.44a9.66,9.66,0,0,1-2.35,1.31,22,22,0,0,0-4.63,2.76A10.59,10.59,0,0,1,287,455.6c-1.8.82-3.83,1.23-5.53,2.22s-3.53,1.18-5.17,2c-1.82.94-3.84,1.3-5.68,2-1.37.55-2.84.92-4.21,1.42s-2.85,1.56-4.54,1.48a1.26,1.26,0,0,0-1,.38c-.16.17-.4.44-.56.41-1.94-.31-3.54,1-5.37,1.11-.84.06-1.7,0-2.32.73a.39.39,0,0,1-.32.15c-2.31-.32-4.27,1.44-6.6,1.1a2.24,2.24,0,0,0-2.1.65,1.64,1.64,0,0,1-1,.33,6.52,6.52,0,0,0-3.29.9c-.68.51-1.71.17-2.58.21a2.85,2.85,0,0,0-2.22.65c-.32.34-.82.25-1.26.29-1.66.18-3.37-.27-5,.83-.64.44-1.79.1-2.71.17-1.48.11-2.94-.16-4.38.77-.95.6-2.35.16-3.54.21a2.86,2.86,0,0,0-2.12.62,1.89,1.89,0,0,1-1.38.3l-5.64.06c-1.07,0-2.15-.12-3,.75-.31.3-.84.19-1.28.2-2.08,0-4.16,0-6.23.18a3.52,3.52,0,0,0-2.45.71c-.42.41-1.08.22-1.63.22Z"/><path d="M126,164.87v-10.5a4.39,4.39,0,0,0-.64-2.64.91.91,0,0,1-.2-.55c.29-2-.94-3.64-1.27-5.49a14.43,14.43,0,0,0-1.18-2.57,36.09,36.09,0,0,1-1.8-5.28,11.16,11.16,0,0,0-1.23-2.81,4.83,4.83,0,0,1-.61-2.13,3.68,3.68,0,0,0-.63-2.15,2.37,2.37,0,0,1-.36-1.37,3.61,3.61,0,0,0-.84-2.67.85.85,0,0,1-.23-.54c.12-2.71-1.53-5.17-1.07-7.94a3.06,3.06,0,0,0-.69-2.7c-.28-.3-.2-.76-.2-1.16,0-1.36,0-2.72,0-4.08a3.41,3.41,0,0,1,.67-2.7.59.59,0,0,0,.15-.44c-.28-1.91.94-3.48,1.12-5.28.07-.7.72-.92,1-1.42,1.11-1.77,2.14-3.62,3.92-4.83a37.66,37.66,0,0,1,4.43-2.86c3.89-1.91,8-2,12.16-1.8a2.16,2.16,0,0,1,1.44.48,1.58,1.58,0,0,0,.85.39c1.68.11,3,1,4.46,1.73a1.11,1.11,0,0,0,.44.18c1.78.05,3.06,1.34,4.65,1.87a2.39,2.39,0,0,0,.44.18c3.65.34,7.27,1.95,10.91,1,2.58-.68,5.41-.55,7.73-2,1.56-1,3.39-1.17,4.94-2,3.6-2,7.53-2.17,11.4-1.66a16.72,16.72,0,0,1,5.38,1.56,21.53,21.53,0,0,1,7,5.3,22.83,22.83,0,0,1,2.65,4.7c.7,1.44.63,3.15,1.2,4.49.91,2.1.56,4.13.7,6.2a4.33,4.33,0,0,1-.62,2.73c-.58.92-.26,2.11-.31,3.18a5,5,0,0,1-.7,3.08c-.52.7-.25,1.71-.28,2.58a2.63,2.63,0,0,1-.6,2,.62.62,0,0,0-.2.42c.28,2-.88,3.73-1.39,5.56a14.31,14.31,0,0,1-1.48,4.1,1.52,1.52,0,0,0-.29.77c0,1.63-1,2.87-1.66,4.24-.07.14-.22.29-.21.42.11,1.61-1.35,2.8-1.17,4.43,0,.47-.3.8-.61,1.12a.76.76,0,0,0-.22.41c0,2.22-1.26,4.17-1.25,6.4,0,6.23,0,12.47,0,18.71a4,4,0,0,1-.61,2.5c-.51.71-.28,1.63-.31,2.46-.05,1,.07,2.1-.68,3a.55.55,0,0,0-.13.33c.17,1.82-.86,3.34-1.26,5a8.16,8.16,0,0,1-3.32,4.7c-.73.51-2.77.14-3.49-.39A14.45,14.45,0,0,1,178,186s0-.07-.05-.1c-1.64-1.9-2.51-4.24-3.66-6.41-.79-1.49-1.4-3.1-2.33-4.5-2.34-3.51-3.89-7.59-7.44-10.22-.91-.67-1.48-1.7-2.53-2.28a6.35,6.35,0,0,0-6.95.44c-.81.72-2.06.88-2.55,1.91-1,2.05-3,3.32-3.9,5.47a38.26,38.26,0,0,1-2.26,3.82c-.93,1.63-1.87,3.27-2.73,4.95a42.42,42.42,0,0,1-3.15,5.91,12.9,12.9,0,0,0-1.78,3.06,7.23,7.23,0,0,1-4.86,3.7c-2,.12-2.89-1.34-3.68-2.6-1.22-1.95-1.57-4.31-2.36-6.45-.7-1.92-.3-3.93-1-5.66C125.2,172.72,126.5,168.36,126,164.87Z"/></g></g></svg>